<svg width="30" height="30" viewBox="0 0 30 30" fill="none" xmlns="http://www.w3.org/2000/svg">
<rect width="30" height="30" rx="4" fill="#E7EEFC"/>
<path d="M17.7 9.3C17.5168 9.48692 17.4141 9.73824 17.4141 10C17.4141 10.2617 17.5168 10.5131 17.7 10.7L19.3 12.3C19.4869 12.4832 19.7382 12.5859 20 12.5859C20.2617 12.5859 20.513 12.4832 20.7 12.3L24.47 8.53C24.9728 9.64118 25.1251 10.8792 24.9064 12.0791C24.6878 13.2791 24.1087 14.3838 23.2463 15.2463C22.3838 16.1087 21.279 16.6878 20.0791 16.9065C18.8792 17.1251 17.6412 16.9728 16.53 16.47L9.61998 23.38C9.22215 23.7778 8.68259 24.0013 8.11998 24.0013C7.55737 24.0013 7.0178 23.7778 6.61998 23.38C6.22215 22.9822 5.99866 22.4426 5.99866 21.88C5.99866 21.3174 6.22215 20.7778 6.61998 20.38L13.53 13.47C13.0271 12.3588 12.8749 11.1208 13.0935 9.92085C13.3121 8.72094 13.8913 7.61615 14.7537 6.75372C15.6161 5.89128 16.7209 5.31216 17.9208 5.09354C19.1207 4.87491 20.3588 5.02716 21.47 5.52999L17.71 9.29L17.7 9.3Z" fill="black" stroke="black" stroke-linecap="round" stroke-linejoin="round"/>
</svg>
